# xmcd
#
# Track frame offsets: 
#        150
#        18520
#        35875
#        56002
#        72960
#        93935
#        113382
#        134667
#        157070
#        184625
#        205125
#        224512
#
# Disc length: 3188 seconds
#
# Revision: 0
# Processed by: cddbd v1.4PL0 Copyright (c) Steve Scherf et al.
# Submitted via: ExactAudioCopy v0.95a4
#
DISCID=b00c720c
DTITLE=Infinite Possibilities - Amel Larrieux
DYEAR=1999
DGENRE=Rhythmic Soul
TTITLE0=Get Up
TTITLE1=Ini
TTITLE2=Sweet Misery
TTITLE3=Searchin' for my Soul
TTITLE4=Evan if
TTITLE5=Infinite Possibilities
TTITLE6=Shine
TTITLE7=Down
TTITLE8=Weather
TTITLE9=Make me Whole
TTITLE10=Get up (thread had fun main mix)
TTITLE11=Get up (mv mig mix [radio])
EXTD=
EXTT0=
EXTT1=
EXTT2=
EXTT3=
EXTT4=
EXTT5=
EXTT6=
EXTT7=
EXTT8=
EXTT9=
EXTT10=
EXTT11=
PLAYORDER=
